<svg width="33" height="33" viewBox="0 0 33 33" fill="none" xmlns="http://www.w3.org/2000/svg">
<rect x="33" width="33" height="33" rx="7" transform="rotate(90 33 0)" fill="#363636"/>
<path d="M23 20.7475C23 21.0175 22.9399 21.295 22.8122 21.565C22.6845 21.835 22.5193 22.09 22.3015 22.33C21.9334 22.735 21.5278 23.0275 21.0696 23.215C20.6189 23.4025 20.1307 23.5 19.6049 23.5C18.8388 23.5 18.02 23.32 17.1562 22.9525C16.2924 22.585 15.4286 22.09 14.5724 21.4675C13.7086 20.8375 12.8898 20.14 12.1087 19.3675C11.335 18.5875 10.6365 17.77 10.013 16.915C9.3971 16.06 8.90135 15.205 8.54081 14.3575C8.18027 13.5025 8 12.685 8 11.905C8 11.395 8.09014 10.9075 8.27041 10.4575C8.45068 10 8.7361 9.58 9.1342 9.205C9.61492 8.7325 10.1407 8.5 10.6965 8.5C10.9069 8.5 11.1172 8.545 11.305 8.635C11.5003 8.725 11.673 8.86 11.8082 9.055L13.5508 11.5075C13.686 11.695 13.7837 11.8675 13.8513 12.0325C13.9189 12.19 13.9564 12.3475 13.9564 12.49C13.9564 12.67 13.9039 12.85 13.7987 13.0225C13.7011 13.195 13.5583 13.375 13.3781 13.555L12.8072 14.1475C12.7246 14.23 12.687 14.3275 12.687 14.4475C12.687 14.5075 12.6945 14.56 12.7096 14.62C12.7321 14.68 12.7546 14.725 12.7697 14.77C12.9049 15.0175 13.1377 15.34 13.4682 15.73C13.8062 16.12 14.1667 16.5175 14.5573 16.915C14.9629 17.3125 15.3535 17.68 15.7516 18.0175C16.1422 18.3475 16.4652 18.5725 16.7206 18.7075C16.7581 18.7225 16.8032 18.745 16.8558 18.7675C16.9159 18.79 16.976 18.7975 17.0436 18.7975C17.1713 18.7975 17.2689 18.7525 17.3515 18.67L17.9224 18.1075C18.1102 17.92 18.2904 17.7775 18.4632 17.6875C18.636 17.5825 18.8087 17.53 18.9965 17.53C19.1392 17.53 19.2894 17.56 19.4547 17.6275C19.6199 17.695 19.7927 17.7925 19.9805 17.92L22.4667 19.6825C22.662 19.8175 22.7972 19.975 22.8798 20.1625C22.9549 20.35 23 20.5375 23 20.7475Z" fill="#00983C"/>
</svg>
